<?xml version="1.0" encoding="UTF-8" standalone="no"?>
<!-- Created with Inkscape (http://www.inkscape.org/) -->

<svg
   width="364.11084mm"
   height="55.325947mm"
   viewBox="0 0 364.11084 55.325946"
   version="1.1"
   id="svg1"
   xml:space="preserve"
   inkscape:version="1.4.2 (ebf0e940, 2025-05-08)"
   sodipodi:docname="F_CCSSTI_UCLM.svg"
   inkscape:export-filename="F_CCSSTI_UCLM.png"
   inkscape:export-xdpi="300"
   inkscape:export-ydpi="300"
   xmlns:inkscape="http://www.inkscape.org/namespaces/inkscape"
   xmlns:sodipodi="http://sodipodi.sourceforge.net/DTD/sodipodi-0.dtd"
   xmlns:xlink="http://www.w3.org/1999/xlink"
   xmlns="http://www.w3.org/2000/svg"
   xmlns:svg="http://www.w3.org/2000/svg"
   xmlns:i="&amp;ns_ai;"><sodipodi:namedview
     id="namedview1"
     pagecolor="#ffffff"
     bordercolor="#000000"
     borderopacity="0.25"
     inkscape:showpageshadow="2"
     inkscape:pageopacity="0.0"
     inkscape:pagecheckerboard="0"
     inkscape:deskcolor="#d1d1d1"
     inkscape:document-units="mm"
     inkscape:zoom="0.36524972"
     inkscape:cx="1093.7722"
     inkscape:cy="506.50278"
     inkscape:window-width="1920"
     inkscape:window-height="969"
     inkscape:window-x="1800"
     inkscape:window-y="338"
     inkscape:window-maximized="1"
     inkscape:current-layer="layer1" /><defs
     id="defs1"><rect
       id="SVGID_1_"
       width="566.90002"
       height="283.5"
       x="0"
       y="0" /><rect
       id="SVGID_00000098919710140071919950000008126432731445032853_"
       width="566.90002"
       height="283.5"
       x="0"
       y="0" /><rect
       id="SVGID_00000096041035711342688370000009370655146567933571_"
       x="586.90002"
       width="566.90002"
       height="283.5"
       y="0" /><rect
       id="SVGID_00000097501802623492771850000015968069319311594371_"
       x="586.90002"
       width="566.90002"
       height="283.5"
       y="0" /><rect
       id="SVGID_00000011714049759671707350000011786898729359713157_"
       x="1173.9"
       width="566.90002"
       height="283.5"
       y="0" /><rect
       id="SVGID_00000070837458402034720750000012667820408162892442_"
       x="1173.9"
       width="566.90002"
       height="283.5"
       y="0" /><rect
       id="SVGID_00000145035472456410042990000000177598052258157484_"
       x="1760.8"
       width="566.90002"
       height="283.5"
       y="0" /><rect
       id="SVGID_00000011030575559619160330000017455568811004808087_"
       x="1760.8"
       width="566.90002"
       height="283.5"
       y="0" /></defs><g
     inkscape:label="Layer 1"
     inkscape:groupmode="layer"
     id="layer1"
     transform="translate(1026.3999,-162.66945)"><g
       id="g11"
       transform="matrix(0.22054392,0,0,0.22054392,-800.03362,126.79369)"><g
         id="g10"><path
           inkscape:connector-curvature="0"
           id="path53343-6-5-3"
           style="fill:#000000;fill-opacity:1;fill-rule:nonzero;stroke:none;stroke-width:0.362505"
           d="m -222.43631,282.41035 h -43.21597 c 1.04238,-30.2947 12.81011,-60.27024 35.38561,-83.38932 23.35493,-23.91879 53.8704,-35.96626 84.479,-36.28174 v 44.15441 c -19.57231,0.31916 -39.05506,8.0561 -53.98861,23.3502 -14.15983,14.498 -21.63916,33.18181 -22.66003,52.16645" /><path
           inkscape:connector-curvature="0"
           id="path53345-8-3-5"
           style="fill:#ffc000;fill-opacity:1;fill-rule:nonzero;stroke:none;stroke-width:0.362505"
           d="m -267.11305,366.73513 v 44.15809 c 30.54199,-0.37053 60.97504,-12.41062 84.27986,-36.27809 22.57405,-23.11905 34.34108,-53.09458 35.38705,-83.38563 h -43.22101 c -1.01727,18.98094 -8.5002,37.66476 -22.65643,52.1628 -14.88341,15.24273 -34.28414,22.97231 -53.78947,23.34283" /><path
           inkscape:connector-curvature="0"
           id="path53347-0-5-6"
           style="fill:#c00000;fill-opacity:1;fill-rule:nonzero;stroke:none;stroke-width:0.362505"
           d="m -331.14787,230.2439 c 15.29928,-15.6683 35.36735,-23.46394 55.42108,-23.41623 v -44.15808 c -31.09108,-0.0477 -62.19044,12.05844 -85.91184,36.34779 -22.57657,23.12273 -34.34,53.10195 -35.38668,83.39297 h 43.22098 c 1.0173,-18.98095 8.50057,-37.66845 22.65646,-52.16645" /><path
           inkscape:connector-curvature="0"
           id="path53349-3-6-2"
           style="fill:#2b4b85;fill-opacity:1;fill-rule:nonzero;stroke:none;stroke-width:0.362505"
           d="m -353.80433,291.2295 h -43.21812 c 1.04527,30.28736 12.81014,60.26658 35.38812,83.38563 23.71569,24.29668 54.81787,36.39915 85.90754,36.35512 v -44.15808 c -20.05662,0.044 -40.12325,-7.75161 -55.42252,-23.41622 -14.1559,-14.50169 -21.63913,-33.18915 -22.65502,-52.16645" /></g><g
         id="g9"><text
           id="text53355-1-2-9"
           y="271.82394"
           x="-107.14239"
           style="font-style:normal;font-weight:normal;font-size:60.6778px;line-height:1.25;font-family:sans-serif;letter-spacing:0px;word-spacing:0px;fill:#000000;fill-opacity:1;stroke:none;stroke-width:2.24339"
           xml:space="preserve"><tspan
             style="font-style:normal;font-variant:normal;font-weight:bold;font-stretch:normal;font-size:60.6778px;font-family:'Roboto Condensed';-inkscape-font-specification:'Roboto Condensed,  Bold';fill:#000000;stroke-width:2.24339"
             y="271.82394"
             x="-107.14239"
             sodipodi:role="line"
             id="tspan11254-1">Ciencias Sociales y</tspan></text><text
           xml:space="preserve"
           style="font-style:normal;font-weight:normal;font-size:60.6816px;line-height:1.25;font-family:sans-serif;letter-spacing:0px;word-spacing:0px;fill:#000000;fill-opacity:1;stroke:none;stroke-width:1.51703"
           x="-106.31283"
           y="409.98453"
           id="text53359-6-1-2"><tspan
             sodipodi:role="line"
             x="-106.31283"
             y="409.98453"
             style="font-style:normal;font-variant:normal;font-weight:300;font-stretch:normal;font-family:'Roboto Condensed';-inkscape-font-specification:'Roboto Condensed, Light';fill:#000000;stroke-width:1.51703"
             id="tspan53357-3-2-7">Talavera de la Reina. UCLM</tspan></text><text
           id="text53363-3-7-0"
           y="207.30055"
           x="-109.36768"
           style="font-style:normal;font-weight:normal;font-size:58.6142px;line-height:1.25;font-family:sans-serif;letter-spacing:0px;word-spacing:0px;fill:#000000;fill-opacity:1;stroke:none;stroke-width:1.46536"
           xml:space="preserve"><tspan
             id="tspan53361-0-0-9"
             style="font-style:normal;font-variant:normal;font-weight:300;font-stretch:normal;font-family:'Roboto Condensed';-inkscape-font-specification:'Roboto Condensed, Light';fill:#000000;stroke-width:1.46536"
             y="207.30055"
             x="-109.36768"
             sodipodi:role="line">Facultad de</tspan></text><text
           id="text12252-3"
           y="338.73059"
           x="-105.95715"
           style="font-style:normal;font-weight:normal;font-size:60.6778px;line-height:1.25;font-family:sans-serif;letter-spacing:0px;word-spacing:0px;fill:#000000;fill-opacity:1;stroke:none;stroke-width:1.48216"
           xml:space="preserve"><tspan
             style="font-style:normal;font-variant:normal;font-weight:bold;font-stretch:normal;font-size:60.6778px;font-family:'Roboto Condensed';-inkscape-font-specification:'Roboto Condensed,  Bold';fill:#000000;stroke-width:1.48216"
             y="338.73059"
             x="-105.95715"
             sodipodi:role="line"
             id="tspan12250-6">Tecnologías de la Información</tspan></text></g></g><switch
       id="switch30"
       transform="matrix(0.05835225,0,0,0.05835225,-844.84231,151.25203)">
	<foreignObject
   requiredExtensions="http://ns.adobe.com/AdobeIllustrator/10.0/"
   x="0"
   y="0"
   width="1"
   height="1">
		<i:aipgfRef
   xlink:href="#adobe_illustrator_pgf">
		</i:aipgfRef>
	</foreignObject>
	<g
   i:extraneous="self"
   id="g30"
   transform="translate(-2332.6507,-1379.8779)">
		<g
   id="g7"
   transform="matrix(6.3231868,0,0,6.3231868,-1048.1237,1150.9151)">
			<g
   id="g6">
				<defs
   id="defs1-7">
					<rect
   id="rect1"
   width="566.90002"
   height="283.5"
   x="0"
   y="0" />
				</defs>
				<clipPath
   id="SVGID_00000110441544169274366540000017488285216295441556_">
					<use
   xlink:href="#SVGID_1_"
   style="overflow:visible"
   id="use1" />
				</clipPath>
				<g
   clip-path="url(#SVGID_00000110441544169274366540000017488285216295441556_)"
   id="g5">
					<defs
   id="defs2">
						<rect
   id="rect3"
   width="566.90002"
   height="283.5"
   x="0"
   y="0" />
					</defs>
					<clipPath
   id="SVGID_00000152959164651550573850000013040482042911634828_">
						<use
   xlink:href="#SVGID_00000098919710140071919950000008126432731445032853_"
   style="overflow:visible"
   id="use2" />
					</clipPath>
					<path
   style="fill:#b30033"
   d="m 162.5,120.2 c 4.4,-3.4 5.7,-9.3 5.7,-13.6 V 68.5 h -18.4 v 32 c 0,1.8 -0.6,5.8 -2.6,7.3 -2.3,1.7 -4.7,1.8 -7.8,1.8 -3.5,0 -6.5,-0.1 -8.3,-2.3 -1.7,-2 -2.1,-4.2 -2.1,-6.4 V 68.5 h -18.5 v 38.2 c 0,3.7 1,9.7 5.2,13.1 5.6,4.6 14.1,5.5 24,5.5 9.1,-0.1 17.5,-1.1 22.8,-5.1 m 36.1,-23.4 c 0,-9.3 5.1,-15.9 17.8,-15.9 10.9,0 20.4,4.5 20.4,4.5 l -1.1,-14.6 c 0,0 -10.6,-3.1 -22.5,-3.1 -7.6,0 -33.6,1.3 -33.6,29 0,23.7 20.3,28.7 33.6,28.7 17,0 24.9,-3.9 24.9,-3.9 l 0.5,-14.4 c 0,0 -13.9,5.1 -22.1,5.1 -10.7,-0.2 -17.9,-6.1 -17.9,-15.4 m 51.4,27.7 h 49.4 v -16 h -29.9 v -40 H 250 Z m 138.3,0 v -56 h -19.4 l -19.4,32.4 -19.3,-32.4 h -19.4 v 56 h 17.8 V 92.6 l 16.7,31.9 h 8.7 l 16.6,-31.9 v 31.9 z"
   clip-path="url(#SVGID_00000152959164651550573850000013040482042911634828_)"
   id="path2" />
					<path
   style="fill:#b30033"
   d="m 68.5,105.1 v 5.2 h -1.6 c -0.4,0 -0.7,0.3 -0.7,0.7 v 8.6 l 4.9,4.9 4.9,-4.9 V 111 c 0,-0.4 -0.3,-0.7 -0.7,-0.7 h -1.6 v -5.1 l 0.6,-0.5 c 1.2,-1 1.9,-2.4 1.9,-4 0,-2.8 -2.3,-5.1 -5.1,-5.1 -2.8,0 -5.1,2.3 -5.1,5.1 0,1.5 0.7,3 1.9,3.9 z M 56.2,97 v 0.4 13.4 l 4.9,4.9 v -4.8 c 0,-1.7 0.7,-3.3 2,-4.4 -1.2,-1.7 -1.9,-3.8 -1.9,-5.9 0,-5.5 4.5,-10 10,-10 5.5,0 10,4.5 10,10 0,2.1 -0.7,4.2 -1.9,5.9 1.2,1.1 1.9,2.7 1.9,4.3 v 4.8 l 4.9,-4.9 V 97.9 C 86,89.7 79.3,83 71.1,83 63.2,83 56.6,89.2 56.2,97 m 43.4,0.2 C 95.6,83.3 84.7,72.3 71,68.4 c -13.7,4 -24.5,15 -28.4,28.8 l 8.4,8.4 V 97 c 0.5,-10.8 9.3,-19.2 20.1,-19.2 11.1,0 20.1,9 20.1,20.1 v 7.7 z"
   clip-path="url(#SVGID_00000152959164651550573850000013040482042911634828_)"
   id="path3" />
					<path
   style="fill:#b30033"
   d="m 383.1,159.6 c 1.5,1.9 2.2,5 2.2,9.4 v 0.4 c 0,4.2 -0.7,7.3 -2.2,9.1 -1.5,1.8 -3.8,2.8 -7,2.8 -6.2,0 -9.3,-4 -9.3,-11.9 0,-4.1 0.8,-7.2 2.3,-9.4 1.5,-2.2 3.8,-3.2 6.9,-3.2 3.3,-0.1 5.6,0.9 7.1,2.8 m -16,-1.3 c -2,2.6 -3,6.3 -3,11.1 0,4.6 1,8.1 3.1,10.5 2.1,2.4 5,3.6 8.9,3.6 4,0 7.1,-1.6 9.2,-4.8 h 0.2 l 0.6,4.3 h 1.7 v -40.2 h -2.5 v 10.1 c 0,2.1 0.1,4.2 0.2,6.4 h -0.2 c -1.2,-1.8 -2.5,-3.1 -4,-3.8 -1.5,-0.7 -3.2,-1.1 -5.3,-1.1 -3.9,0 -6.8,1.3 -8.9,3.9 m -27.6,21.5 c -1.1,-1 -1.6,-2.3 -1.6,-4.1 0,-2.2 0.8,-3.8 2.5,-4.9 1.7,-1.1 4.5,-1.7 8.4,-1.8 l 4.9,-0.2 v 2.8 c 0,3 -0.9,5.4 -2.6,7.1 -1.7,1.7 -4.1,2.6 -7.1,2.6 -1.9,-0.1 -3.4,-0.6 -4.5,-1.5 m 16.8,3.2 v -18.7 c 0,-3.4 -0.8,-5.9 -2.3,-7.5 -1.5,-1.6 -3.8,-2.4 -6.9,-2.4 -3,0 -6.1,0.7 -9.1,2.2 l 1,2.2 c 2.8,-1.4 5.5,-2.2 8.1,-2.2 2.4,0 4.2,0.7 5.2,2 1.1,1.4 1.6,3.4 1.6,6 v 1.9 l -5.4,0.2 c -4.3,0.1 -7.6,0.9 -9.9,2.4 -2.3,1.5 -3.4,3.6 -3.4,6.4 0,2.5 0.8,4.5 2.3,5.9 1.5,1.4 3.7,2.1 6.4,2.1 2,0 3.8,-0.4 5.3,-1.1 1.5,-0.7 2.9,-2 4.4,-3.8 h 0.2 l 0.6,4.4 z m -33.4,-23.4 c 1.5,1.9 2.2,5 2.2,9.4 v 0.4 c 0,4.2 -0.7,7.3 -2.2,9.1 -1.5,1.8 -3.8,2.8 -7,2.8 -6.2,0 -9.3,-4 -9.3,-11.9 0,-4.1 0.8,-7.2 2.3,-9.4 1.5,-2.2 3.8,-3.2 6.9,-3.2 3.3,-0.1 5.6,0.9 7.1,2.8 M 307,158.3 c -2,2.6 -3.1,6.3 -3.1,11.1 0,4.6 1,8.1 3.1,10.5 2,2.4 5,3.6 8.9,3.6 4,0 7.1,-1.6 9.2,-4.8 h 0.2 l 0.6,4.3 h 1.7 v -40.2 h -2.5 v 10.1 c 0,2.1 0.1,4.2 0.2,6.4 h -0.2 c -1.2,-1.8 -2.5,-3.1 -4,-3.8 -1.5,-0.7 -3.2,-1.1 -5.3,-1.1 -3.9,0 -6.8,1.3 -8.8,3.9 m -12.5,-8.7 c 0.5,0 1,-0.2 1.3,-0.7 0.3,-0.5 0.5,-1.1 0.5,-1.8 0,-0.8 -0.2,-1.4 -0.5,-1.8 -0.3,-0.4 -0.7,-0.6 -1.3,-0.6 -1.1,0 -1.6,0.8 -1.6,2.5 0,1.6 0.5,2.4 1.6,2.4 m 1.3,5.3 h -2.6 V 183 h 2.6 z m -11,17.5 c -0.6,-0.9 -1.4,-1.8 -2.6,-2.5 -1.2,-0.7 -3,-1.6 -5.5,-2.5 -3,-1.1 -5.1,-2.1 -6.1,-2.9 -1,-0.9 -1.6,-2 -1.6,-3.5 0,-1.3 0.7,-2.4 2,-3.2 1.3,-0.8 3.2,-1.1 5.5,-1.1 2.4,0 4.9,0.6 7.7,1.7 l 1,-2.3 c -2.7,-1.1 -5.6,-1.7 -8.6,-1.7 -3.2,0 -5.6,0.6 -7.4,1.8 -1.8,1.2 -2.6,2.9 -2.6,5 0,1.3 0.3,2.4 0.9,3.4 0.6,0.9 1.4,1.7 2.6,2.5 1.1,0.7 3.1,1.6 5.9,2.6 2.6,0.9 4.5,1.9 5.6,2.8 1.1,1 1.7,2.2 1.7,3.6 0,1.5 -0.7,2.8 -2.2,3.7 -1.4,0.9 -3.5,1.4 -6.3,1.4 -3.1,0 -6.1,-0.7 -8.9,-2.1 v 2.8 c 2.2,1.2 5.2,1.7 8.9,1.7 3.5,0 6.2,-0.7 8.1,-2 1.9,-1.4 2.9,-3.3 2.9,-5.8 -0.1,-1.3 -0.4,-2.4 -1,-3.4 m -31.1,-16.7 c -1.3,0.8 -2.5,2.3 -3.7,4.4 h -0.2 l -0.3,-5.1 h -2.2 v 28 h 2.6 v -15.5 c 0,-3.1 0.8,-5.7 2.3,-7.7 1.5,-2 3.5,-3 5.9,-3 1.3,0 2.5,0.1 3.6,0.4 l 0.5,-2.5 c -1.4,-0.2 -2.6,-0.4 -3.8,-0.4 -1.8,0.1 -3.4,0.5 -4.7,1.4 m -19.2,3.7 c 1.4,1.8 2.1,4.4 2.1,7.6 h -17.4 c 0.3,-3.4 1.2,-5.9 2.9,-7.7 1.6,-1.8 3.8,-2.7 6.5,-2.7 2.5,0.1 4.5,1 5.9,2.8 m -0.7,23.8 c 1.3,-0.2 2.8,-0.7 4.4,-1.4 v -2.3 c -1.9,0.7 -3.4,1.2 -4.6,1.4 -1.2,0.2 -2.6,0.3 -4.2,0.3 -3.3,0 -5.8,-1 -7.6,-3 -1.8,-2 -2.7,-5 -2.7,-8.8 h 20.2 v -2.1 c 0,-4 -1,-7.1 -2.9,-9.4 -1.9,-2.3 -4.5,-3.5 -7.8,-3.5 -3.7,0 -6.7,1.3 -8.9,4 -2.2,2.7 -3.3,6.3 -3.3,10.8 0,4.5 1.1,8.1 3.4,10.6 2.3,2.5 5.5,3.8 9.5,3.8 1.7,0 3.2,-0.2 4.5,-0.4 M 202.1,183 213,154.9 h -2.6 l -7.3,19 c -0.7,2 -1.5,4.1 -2.2,6.5 h -0.2 c -0.5,-1.8 -1.2,-4 -2.2,-6.4 l -7.3,-19.1 h -2.6 l 10.9,28.1 z m -19.7,-33.4 c 0.5,0 1,-0.2 1.3,-0.7 0.3,-0.4 0.5,-1.1 0.5,-1.8 0,-0.8 -0.2,-1.4 -0.5,-1.8 -0.3,-0.4 -0.7,-0.6 -1.3,-0.6 -1.1,0 -1.6,0.8 -1.6,2.5 0,1.6 0.5,2.4 1.6,2.4 m 1.3,5.3 h -2.6 V 183 h 2.6 z m -12,28.1 v -18.4 c 0,-6.8 -3.2,-10.3 -9.6,-10.3 -4.7,0 -7.9,1.5 -9.7,4.4 h -0.2 l -0.5,-3.9 h -2.2 V 183 h 2.6 v -15.5 c 0,-3.8 0.8,-6.6 2.3,-8.3 1.6,-1.7 4,-2.5 7.4,-2.5 2.5,0 4.3,0.6 5.5,1.9 1.2,1.3 1.8,3.3 1.8,6.2 V 183 Z M 137,145.3 V 170 c 0,3.5 -1,6.3 -3,8.3 -2,2 -4.8,3 -8.4,3 -3.7,0 -6.5,-1 -8.6,-3 -2,-2 -3,-4.9 -3,-8.5 v -24.4 h -2.7 v 24.3 c 0,4.4 1.2,7.8 3.7,10.3 2.5,2.5 5.9,3.7 10.2,3.7 4.5,0 8,-1.2 10.5,-3.7 2.5,-2.4 3.8,-5.8 3.8,-10.2 V 145.4 H 137 Z"
   clip-path="url(#SVGID_00000152959164651550573850000013040482042911634828_)"
   id="path4" />
					<path
   style="fill:#b30033"
   d="m 382.5,210.5 c 0,1 -0.3,1.8 -1,2.4 -0.6,0.6 -1.4,0.8 -2.4,0.8 -0.6,0 -1.1,-0.1 -1.5,-0.4 -0.4,-0.3 -0.6,-0.8 -0.6,-1.4 0,-0.8 0.3,-1.4 0.8,-1.9 0.5,-0.5 1.5,-0.7 3,-0.8 l 1.7,-0.1 z m -5.6,-9.9 c -1.1,0.3 -2,0.6 -2.9,1.1 l 1.5,3 c 0.7,-0.3 1.5,-0.6 2.2,-0.8 0.7,-0.2 1.5,-0.3 2.3,-0.3 0.8,0 1.4,0.2 1.8,0.6 0.4,0.4 0.7,1 0.7,1.9 v 0.7 l -2.8,0.1 c -2.4,0.1 -4.2,0.5 -5.4,1.3 -1.2,0.8 -1.8,2.1 -1.8,3.8 0,1.2 0.2,2.1 0.6,2.9 0.4,0.8 1,1.3 1.8,1.7 0.8,0.4 1.6,0.5 2.6,0.5 0.9,0 1.7,-0.1 2.3,-0.3 0.6,-0.2 1.2,-0.4 1.7,-0.8 0.5,-0.4 1,-0.8 1.4,-1.4 h 0.1 l 0.9,2.2 h 3.1 v -10.7 c 0,-1.9 -0.6,-3.3 -1.7,-4.3 -1.2,-0.9 -2.8,-1.4 -5,-1.4 -1.3,-0.2 -2.4,0 -3.4,0.2 m -22.7,-6.3 v 22.4 h 4.4 v -7.6 c 0,-1.1 0.1,-2.1 0.3,-2.9 0.2,-0.8 0.6,-1.4 1.1,-1.8 0.5,-0.4 1.2,-0.6 2.1,-0.6 0.9,0 1.5,0.3 2,0.9 0.4,0.6 0.6,1.5 0.6,2.6 v 9.4 h 4.4 v -10.5 c 0,-1.4 -0.2,-2.5 -0.7,-3.4 -0.5,-0.9 -1.2,-1.5 -2,-1.9 -0.9,-0.4 -1.9,-0.6 -3,-0.6 -0.7,0 -1.3,0.1 -1.9,0.2 -0.6,0.2 -1.1,0.4 -1.6,0.8 -0.5,0.3 -0.9,0.8 -1.2,1.4 h -0.2 c 0,-0.3 0.1,-0.8 0.1,-1.5 0.1,-0.7 0.1,-1.5 0.1,-2.3 v -4.6 z m -5.8,22.4 c 0.7,-0.2 1.4,-0.5 2.1,-0.9 V 212 c -0.7,0.4 -1.4,0.8 -2.1,1 -0.7,0.2 -1.5,0.4 -2.4,0.4 -0.7,0 -1.4,-0.2 -1.9,-0.5 -0.5,-0.3 -0.9,-0.9 -1.2,-1.6 -0.3,-0.7 -0.4,-1.6 -0.4,-2.6 0,-1.1 0.1,-2 0.4,-2.7 0.2,-0.7 0.6,-1.3 1.1,-1.6 0.5,-0.4 1.1,-0.5 1.9,-0.5 0.6,0 1.2,0.1 1.8,0.3 0.6,0.2 1.2,0.4 1.9,0.7 l 1.3,-3.4 c -0.6,-0.3 -1.3,-0.6 -2.1,-0.8 -0.8,-0.2 -1.8,-0.3 -2.9,-0.3 -1.6,0 -2.9,0.3 -4.1,0.9 -1.2,0.6 -2.1,1.5 -2.8,2.7 -0.7,1.2 -1,2.8 -1,4.8 0,1.9 0.3,3.5 0.9,4.7 0.6,1.2 1.4,2.1 2.6,2.7 1.1,0.6 2.5,0.9 4.1,0.9 1.1,-0.1 2,-0.2 2.8,-0.4 m -21.6,-16.2 c -0.6,0.2 -1.2,0.4 -1.7,0.8 -0.5,0.4 -0.9,0.8 -1.3,1.4 h -0.2 l -0.6,-2.1 h -3.4 v 16.1 h 4.4 v -7.6 c 0,-1.7 0.2,-3 0.7,-3.9 0.5,-0.9 1.4,-1.4 2.7,-1.4 0.9,0 1.5,0.3 2,0.9 0.4,0.6 0.6,1.5 0.6,2.6 v 9.4 h 4.4 v -10.5 c 0,-2.1 -0.5,-3.6 -1.6,-4.5 -1,-0.9 -2.4,-1.4 -4.1,-1.4 -0.6,0 -1.2,0 -1.9,0.2 m -16,10 c 0,1 -0.3,1.8 -1,2.4 -0.6,0.6 -1.4,0.8 -2.4,0.8 -0.6,0 -1.1,-0.1 -1.5,-0.4 -0.4,-0.3 -0.6,-0.8 -0.6,-1.4 0,-0.8 0.3,-1.4 0.8,-1.9 0.6,-0.5 1.5,-0.7 3,-0.8 l 1.7,-0.1 z m -5.7,-9.9 c -1.1,0.3 -2,0.6 -2.9,1.1 l 1.5,3 c 0.7,-0.3 1.5,-0.6 2.2,-0.8 0.7,-0.2 1.5,-0.3 2.3,-0.3 0.8,0 1.4,0.2 1.8,0.6 0.4,0.4 0.7,1 0.7,1.9 v 0.7 l -2.8,0.1 c -2.4,0.1 -4.2,0.5 -5.4,1.3 -1.2,0.8 -1.8,2.1 -1.8,3.8 0,1.2 0.2,2.1 0.6,2.9 0.4,0.8 1,1.3 1.8,1.7 0.8,0.4 1.6,0.5 2.6,0.5 0.9,0 1.7,-0.1 2.3,-0.3 0.6,-0.2 1.2,-0.4 1.7,-0.8 0.5,-0.4 1,-0.8 1.4,-1.4 h 0.1 l 0.9,2.2 h 3.1 v -10.7 c 0,-1.9 -0.6,-3.3 -1.7,-4.3 -1.2,-0.9 -2.8,-1.4 -5,-1.4 -1.2,-0.2 -2.3,0 -3.4,0.2 m -17.7,16.1 5.4,-16.5 h 0.1 c 0,0.4 0,1 -0.1,1.8 0,0.8 -0.1,1.6 -0.1,2.5 0,0.9 0,1.6 0,2.3 v 10 h 4.2 v -21.1 h -6.1 l -5.3,16.1 h -0.1 l -5,-16.1 h -6.1 v 21.1 h 4 V 207 c 0,-0.7 0,-1.5 -0.1,-2.4 0,-0.9 -0.1,-1.7 -0.1,-2.5 0,-0.8 -0.1,-1.4 -0.1,-1.8 h 0.1 l 5.1,16.5 h 4.2 z m -29.9,-6.2 c 0,1 -0.3,1.8 -1,2.4 -0.6,0.6 -1.4,0.8 -2.4,0.8 -0.6,0 -1.1,-0.1 -1.5,-0.4 -0.4,-0.3 -0.6,-0.8 -0.6,-1.4 0,-0.8 0.3,-1.4 0.8,-1.9 0.5,-0.5 1.5,-0.7 3,-0.8 l 1.7,-0.1 z m -5.6,-9.9 c -1.1,0.3 -2,0.6 -2.9,1.1 l 1.5,3 c 0.7,-0.3 1.5,-0.6 2.2,-0.8 0.7,-0.2 1.5,-0.3 2.3,-0.3 0.8,0 1.4,0.2 1.8,0.6 0.4,0.4 0.7,1 0.7,1.9 v 0.7 l -2.8,0.1 c -2.4,0.1 -4.2,0.5 -5.4,1.3 -1.2,0.8 -1.8,2.1 -1.8,3.8 0,1.2 0.2,2.1 0.6,2.9 0.4,0.8 1,1.3 1.8,1.7 0.8,0.4 1.6,0.5 2.6,0.5 0.9,0 1.7,-0.1 2.3,-0.3 0.6,-0.2 1.2,-0.4 1.7,-0.8 0.5,-0.4 1,-0.8 1.4,-1.4 h 0.1 l 0.9,2.2 h 3.1 v -10.7 c 0,-1.9 -0.6,-3.3 -1.7,-4.3 -1.2,-0.9 -2.8,-1.4 -5,-1.4 -1.3,-0.2 -2.4,0 -3.4,0.2 m -6.6,16.1 V 213 h -8.5 v -17.4 h -4.5 v 21.1 z m -20.1,-5.3 c 0.4,0.1 0.7,0.2 1.1,0.2 0.5,0 0.9,-0.1 1.3,-0.4 0.4,-0.3 0.8,-0.7 1.1,-1.2 v -3.3 c -0.3,0.5 -0.7,0.9 -1,1.2 -0.4,0.3 -0.8,0.5 -1.1,0.5 -0.3,0 -0.6,-0.1 -0.9,-0.2 -0.3,-0.1 -0.7,-0.3 -1.2,-0.6 -0.6,-0.4 -1.1,-0.6 -1.5,-0.8 -0.4,-0.1 -0.7,-0.2 -1.1,-0.2 -0.5,0 -0.9,0.1 -1.3,0.4 -0.4,0.3 -0.8,0.7 -1.1,1.2 v 3.3 c 0.3,-0.5 0.7,-0.9 1.1,-1.2 0.4,-0.3 0.8,-0.5 1.1,-0.5 0.3,0 0.6,0.1 0.9,0.2 0.3,0.1 0.7,0.3 1.2,0.6 0.6,0.5 1.1,0.7 1.4,0.8 m -13.1,-0.9 c 0,1 -0.3,1.8 -1,2.4 -0.6,0.6 -1.4,0.8 -2.4,0.8 -0.6,0 -1.1,-0.1 -1.5,-0.4 -0.4,-0.3 -0.6,-0.8 -0.6,-1.4 0,-0.8 0.3,-1.4 0.8,-1.9 0.6,-0.5 1.5,-0.7 3,-0.8 l 1.7,-0.1 z m -5.7,-9.9 c -1.1,0.3 -2,0.6 -2.9,1.1 l 1.5,3 c 0.7,-0.3 1.5,-0.6 2.2,-0.8 0.7,-0.2 1.5,-0.3 2.3,-0.3 0.8,0 1.4,0.2 1.8,0.6 0.4,0.4 0.7,1 0.7,1.9 v 0.7 l -2.8,0.1 c -2.4,0.1 -4.2,0.5 -5.4,1.3 -1.2,0.8 -1.8,2.1 -1.8,3.8 0,1.2 0.2,2.1 0.6,2.9 0.4,0.8 1,1.3 1.8,1.7 0.8,0.4 1.6,0.5 2.6,0.5 0.9,0 1.7,-0.1 2.3,-0.3 0.6,-0.2 1.2,-0.4 1.7,-0.8 0.5,-0.4 1,-0.8 1.4,-1.4 h 0.1 l 0.8,2.2 h 3.1 v -10.7 c 0,-1.9 -0.6,-3.3 -1.7,-4.3 -1.2,-0.9 -2.8,-1.4 -5,-1.4 -1.1,-0.2 -2.2,0 -3.3,0.2 m -7.9,-6.3 h -4.4 v 22.4 h 4.4 z m -9,0 h -4.4 v 22.4 h 4.4 z m -12.9,0.4 c -0.5,0.3 -0.7,0.9 -0.7,1.7 0,0.8 0.2,1.4 0.7,1.7 0.5,0.3 1,0.5 1.7,0.5 0.7,0 1.2,-0.2 1.7,-0.5 0.5,-0.3 0.7,-0.9 0.7,-1.7 0,-0.8 -0.2,-1.4 -0.7,-1.7 -0.5,-0.3 -1,-0.5 -1.7,-0.5 -0.6,0.1 -1.2,0.2 -1.7,0.5 m -0.5,22 h 4.4 v -16.1 h -4.4 z m -7.4,-3.7 c -0.4,-0.3 -0.5,-0.8 -0.5,-1.4 v -7.8 h 4.5 v -3.3 h -4.5 v -3.4 h -2.8 l -1.3,3.4 -2.4,1.5 v 1.9 h 2.1 v 7.8 c 0,1.4 0.2,2.5 0.7,3.2 0.4,0.8 1,1.3 1.8,1.6 0.8,0.3 1.6,0.5 2.6,0.5 0.8,0 1.6,-0.1 2.3,-0.2 0.7,-0.1 1.3,-0.3 1.8,-0.5 V 213 c -0.5,0.1 -0.9,0.3 -1.4,0.4 -0.5,0.1 -0.9,0.1 -1.4,0.1 -0.7,0 -1.1,-0.2 -1.5,-0.5 m -9.3,-3.4 c -0.4,-0.6 -0.9,-1.1 -1.6,-1.5 -0.7,-0.4 -1.5,-0.8 -2.4,-1.2 -0.9,-0.4 -1.7,-0.7 -2.1,-0.9 -0.5,-0.2 -0.8,-0.5 -1,-0.7 -0.2,-0.2 -0.3,-0.4 -0.3,-0.7 0,-0.4 0.2,-0.6 0.5,-0.8 0.3,-0.2 0.8,-0.3 1.5,-0.3 0.7,0 1.4,0.1 2.2,0.3 0.7,0.2 1.5,0.5 2.3,0.8 l 1.3,-3.2 c -1,-0.4 -1.9,-0.8 -2.8,-1 -0.9,-0.2 -1.9,-0.3 -2.9,-0.3 -1.9,0 -3.5,0.4 -4.6,1.1 -1.2,0.8 -1.7,1.9 -1.7,3.4 0,0.9 0.2,1.7 0.5,2.3 0.3,0.6 0.8,1.1 1.4,1.5 0.6,0.4 1.5,0.9 2.5,1.3 1,0.4 1.8,0.8 2.3,1.1 0.5,0.3 0.8,0.5 1,0.7 0.1,0.2 0.2,0.5 0.2,0.7 0,0.4 -0.2,0.7 -0.6,1 -0.4,0.3 -1,0.4 -1.8,0.4 -0.8,0 -1.6,-0.1 -2.6,-0.4 -1,-0.3 -1.9,-0.6 -2.8,-1 v 3.6 c 0.8,0.3 1.6,0.6 2.4,0.7 0.8,0.1 1.8,0.2 2.9,0.2 1.5,0 2.8,-0.2 3.8,-0.6 1,-0.4 1.8,-1 2.3,-1.7 0.5,-0.8 0.8,-1.7 0.8,-2.8 -0.2,-0.7 -0.4,-1.4 -0.7,-2 m -19.6,0.9 c 0,1 -0.3,1.8 -1,2.4 -0.6,0.6 -1.4,0.8 -2.4,0.8 -0.6,0 -1.1,-0.1 -1.5,-0.4 -0.4,-0.3 -0.6,-0.8 -0.6,-1.4 0,-0.8 0.3,-1.4 0.8,-1.9 0.5,-0.5 1.5,-0.7 3,-0.8 l 1.7,-0.1 z m -5.6,-9.9 c -1.1,0.3 -2,0.6 -2.9,1.1 l 1.5,3 c 0.7,-0.3 1.5,-0.6 2.2,-0.8 0.7,-0.2 1.5,-0.3 2.3,-0.3 0.8,0 1.4,0.2 1.8,0.6 0.4,0.4 0.7,1 0.7,1.9 v 0.7 l -2.8,0.1 c -2.4,0.1 -4.2,0.5 -5.4,1.3 -1.2,0.8 -1.8,2.1 -1.8,3.8 0,1.2 0.2,2.1 0.6,2.9 0.4,0.8 1,1.3 1.8,1.7 0.8,0.4 1.6,0.5 2.6,0.5 0.9,0 1.7,-0.1 2.3,-0.3 0.6,-0.2 1.2,-0.4 1.7,-0.8 0.5,-0.4 0.9,-0.8 1.4,-1.4 h 0.1 l 0.8,2.2 h 3.1 v -10.7 c 0,-1.9 -0.6,-3.3 -1.7,-4.3 -1.2,-0.9 -2.8,-1.4 -5,-1.4 -1.2,-0.2 -2.3,0 -3.3,0.2 m -10.5,-1.2 c 0.8,0.3 1.6,0.6 2.4,1 l 1.4,-3.6 c -1,-0.5 -2,-0.8 -3,-1.1 -1.1,-0.3 -2.1,-0.4 -3.1,-0.4 -1.6,0 -3,0.3 -4.2,0.8 -1.2,0.5 -2.3,1.3 -3.1,2.2 -0.8,1 -1.5,2.1 -1.9,3.4 -0.4,1.3 -0.6,2.8 -0.6,4.4 0,2.2 0.3,4 1,5.7 0.7,1.6 1.7,2.9 3.1,3.8 1.4,0.9 3.2,1.3 5.3,1.3 1.1,0 2.1,-0.1 3,-0.3 0.9,-0.2 1.8,-0.4 2.8,-0.8 v -3.7 c -1,0.4 -1.9,0.6 -2.8,0.8 -0.9,0.2 -1.7,0.3 -2.6,0.3 -1.2,0 -2.2,-0.3 -3,-0.8 -0.8,-0.6 -1.4,-1.4 -1.7,-2.4 -0.4,-1.1 -0.6,-2.3 -0.6,-3.8 0,-1.1 0.1,-2.1 0.3,-3 0.2,-0.9 0.6,-1.6 1,-2.3 0.4,-0.6 1,-1.1 1.7,-1.4 0.7,-0.3 1.4,-0.5 2.3,-0.5 0.7,0 1.5,0.2 2.3,0.4"
   clip-path="url(#SVGID_00000152959164651550573850000013040482042911634828_)"
   id="path5" />
				</g>
			</g>
		</g>
		
		
		
	</g>
</switch></g><style
     type="text/css"
     id="style1">
	.st0{clip-path:url(#SVGID_00000119816117811147058660000003797854607836607635_);}
	.st1{clip-path:url(#SVGID_00000034088815248232426270000011169434799947079830_);fill:#B30033;}
	.st2{clip-path:url(#SVGID_00000082354427126556072460000015665280918392372922_);}
	.st3{clip-path:url(#SVGID_00000031908953473660746120000002187301356147679904_);fill:#B30033;}
	.st4{clip-path:url(#SVGID_00000130637571387613359980000004243380542221410459_);}
	.st5{clip-path:url(#SVGID_00000147181833519538974390000012186632588483297927_);fill:#1D1D1B;}
	.st6{clip-path:url(#SVGID_00000071534263112949299650000007656249075129184677_);}
	.st7{clip-path:url(#SVGID_00000049927146582444204280000011538344608845225613_);fill:#1D1D1B;}
</style></svg>
